#!OML:ASF I:\Actors\actors\Patient Classification 2\Patient 1\Session 1\actor1.ASF
:FULLY-SPECIFIED
:DEGREES
668
root -0.525645 18.8978 4.69743 20.2893 1.26364 1.64834
lowerback 28.0039 -1.08943 1.91901
upperback 3.33724 -0.65012 1.26512
thorax -11.8125 -0.347185 0.572585
lowerneck -8.17539 -0.853297 -1.43453
upperneck -3.63384 -1.03919 -2.07218
head 0.220565 -0.526692 -0.422882
rclavicle -9.54166e-015 6.75868e-015
rhumerus 12.5419 21.6145 -45.9428
rradius 148.232
rwrist -31.4399
rhand -2.17169 -39.0649
rfingers 7.12502
rthumb 23.5087 -67.6484
lclavicle -9.54166e-015 6.75868e-015
lhumerus 17.2362 -38.2462 60.9569
lradius 138.772
lwrist 17.7895
lhand -19.6632 -36.2706
lfingers 7.12502
lthumb 6.66491 -6.39545
rfemur -17.414 1.81033 10.0527
rtibia 1.19788
rfoot -15.5374 -17.133
rtoes -4.81451
lfemur -33.7361 4.29764 -17.6247
ltibia 26.2673
lfoot -12.9189 7.49767
ltoes -54.9337
669
root -0.530234 18.8986 4.69806 20.3269 1.3555 1.55594
lowerback 27.9185 -0.978668 1.86635
upperback 3.34833 -0.521934 1.30114
thorax -11.7537 -0.285337 0.594809
lowerneck -8.7219 -0.427292 -0.818203
upperneck -3.32061 -0.504477 -2.23352
head 0.410671 -0.272608 -0.564079
rclavicle -7.55382e-015 2.78299e-015
rhumerus 11.2945 21.867 -46.6968
rradius 148.369
rwrist -30.6114
rhand -2.75898 -38.5513
rfingers 7.12502
rthumb 22.9453 -67.2059
lclavicle -7.55382e-015 2.78299e-015
lhumerus 16.5981 -38.8387 61.7395
lradius 138.608
lwrist 18.4565
lhand -19.6921 -35.2248
lfingers 7.12502
lthumb 6.63709 -5.34884
rfemur -17.2438 1.75765 10.1879
rtibia 0.796083
rfoot -15.4343 -17.2539
rtoes -4.3533
lfemur -33.7941 4.25155 -17.4884
ltibia 26.2618
lfoot -12.9128 7.59126
ltoes -55.064
670
root -0.536158 18.8989 4.70189 20.4002 1.47277 1.56294
lowerback 27.7749 -0.874394 1.69664
upperback 3.31267 -0.441255 1.30721
thorax -11.7184 -0.240562 0.668205
lowerneck -9.38042 -0.213485 -0.55609
upperneck -2.9865 -0.226097 -1.93519
head 0.627954 -0.13798 -0.511121
rclavicle -3.97569e-015 2.74323e-014
rhumerus 9.7689 22.6677 -47.5099
rradius 148.53
rwrist -29.96
rhand -4.14728 -38.501
rfingers 7.12502
rthumb 21.6125 -67.3149
lclavicle -3.97569e-015 2.74323e-014
lhumerus 15.5519 -39.2556 62.6825
lradius 138.22
lwrist 18.8227
lhand -18.3289 -35.7044
lfingers 7.12502
lthumb 7.95287 -5.87401
rfemur -17.3342 1.64617 10.2542
rtibia 0.912333
rfoot -15.5511 -17.1783
rtoes -3.9637
lfemur -33.8621 4.16027 -17.4417
ltibia 26.2345
lfoot -12.8981 7.59271
ltoes -55.0966
671
root -0.540938 18.8995 4.71027 20.4956 1.58613 1.63234
lowerback 27.5255 -0.793328 1.44566
upperback 3.26072 -0.42157 1.27171
thorax -11.6466 -0.220962 0.762599
lowerneck -10.0476 -0.266212 -0.65807
upperneck -2.69993 -0.277499 -1.08073
head 0.83093 -0.154091 -0.234503
rclavicle 1.11319e-014 -3.97569e-015
rhumerus 6.3867 23.5545 -49.9482
rradius 148.876
rwrist -28.5895
rhand -3.60047 -38.2303
rfingers 7.12502
rthumb 22.1376 -66.9829
lclavicle 1.11319e-014 -3.97569e-015
lhumerus 14.3859 -39.665 63.4413
lradius 137.831
lwrist 18.8405
lhand -16.4767 -36.5247
lfingers 7.12502
lthumb 9.74022 -6.76993
rfemur -17.6151 1.51339 10.2629
rtibia 1.4032
rfoot -15.76 -17.0166
rtoes -4.04914
lfemur -33.9342 3.97659 -17.4441
ltibia 26.2012
lfoot -12.906 7.63034
ltoes -55.1355
672
root -0.544704 18.8995 4.7214 20.5907 1.62143 1.59459
lowerback 27.2126 -0.68465 1.24722
upperback 3.21986 -0.350685 1.24395
thorax -11.529 -0.180501 0.816035
lowerneck -10.6583 -0.638316 -0.883736
upperneck -2.57522 -0.752635 0.0812054
head 0.979668 -0.371301 0.143646
rclavicle 1.59028e-015 7.95139e-015
rhumerus 5.41291 24.1785 -50.1022
rradius 148.64
rwrist -27.576
rhand -4.52061 -38.7085
rfingers 7.12502
rthumb 21.254 -67.5632
lclavicle 1.59028e-015 7.95139e-015
lhumerus 13.164 -40.2903 64.0963
lradius 137.606
lwrist 18.68
lhand -15.1694 -37.0014
lfingers 7.12502
lthumb 11.0013 -7.30967
rfemur -17.8617 1.48936 10.3431
rtibia 1.77098
rfoot -15.8888 -16.9332
rtoes -4.37392
lfemur -33.9886 3.84502 -17.345
ltibia 26.1685
lfoot -12.9785 7.74208
ltoes -55.0869
673
root -0.547193 18.8977 4.73456 20.6481 1.62613 1.4718
lowerback 26.8943 -0.557396 1.11623
upperback 3.18333 -0.230996 1.25029
thorax -11.4039 -0.119992 0.852188
lowerneck -11.1146 -1.29627 -1.05008
upperneck -2.69646 -1.62089 1.2219
head 1.03737 -0.783278 0.490304
rclavicle -3.97569e-016 5.1684e-015
rhumerus 3.90036 24.6814 -51.1727
rradius 148.337
rwrist -26.2089
rhand -5.40449 -38.7254
rfingers 7.12502
rthumb 20.4047 -67.6733
lclavicle -3.97569e-016 5.1684e-015
lhumerus 11.7406 -41.0488 64.9374
lradius 137.5
lwrist 18.579
lhand -14.3781 -37.1279
lfingers 7.12502
lthumb 11.7645 -7.47834
rfemur -17.7506 1.5233 10.4715
rtibia 1.47666
rfoot -15.7953 -17.0291
rtoes -4.49068
lfemur -33.9939 3.80227 -17.1814
ltibia 26.1546
lfoot -13.0697 7.81977
ltoes -55.0869
674
root -0.548379 18.896 4.74985 20.6559 1.59928 1.35065
lowerback 26.5964 -0.460847 0.958675
upperback 3.15822 -0.154702 1.27595
thorax -11.2761 -0.0775899 0.941804
lowerneck -11.4127 -2.07485 -1.21575
upperneck -3.09352 -2.64774 2.37819
head 0.996297 -1.27549 0.836286
rclavicle -3.18055e-015 -4.77083e-015
rhumerus 1.98606 25.0016 -53.0955
rradius 148.19
rwrist -24.7831
rhand -5.57976 -38.8956
rfingers 7.12502
rthumb 20.2363 -67.8615
lclavicle -3.18055e-015 -4.77083e-015
lhumerus 10.2221 -41.7515 65.8182
lradius 137.449
lwrist 18.4571
lhand -14.1222 -36.8577
lfingers 7.12502
lthumb 12.0113 -7.22233
rfemur -17.007 1.5812 10.5437
rtibia -3.18055e-015
rfoot -15.2344 -17.5091
rtoes -4.64752
lfemur -33.9452 3.79173 -17.0355
ltibia 26.1709
lfoot -13.1833 7.8532
ltoes -55.1934
675
root -0.549816 18.8959 4.76593 20.6176 1.56202 1.21954
lowerback 26.3388 -0.430113 0.803607
upperback 3.14285 -0.160851 1.30101
thorax -11.1575 -0.0732159 1.05893
lowerneck -11.5639 -2.92655 -1.57266
upperneck -3.76702 -3.74027 3.90951
head 0.873761 -1.79743 1.33548
rclavicle 2.78299e-015 -7.55382e-015
rhumerus 1.31241 25.2828 -53.9137
rradius 147.995
rwrist -23.909
rhand -6.27715 -39.826
rfingers 7.12502
rthumb 19.5659 -68.8615
lclavicle 2.78299e-015 -7.55382e-015
lhumerus 8.62224 -42.2162 66.648
lradius 137.44
lwrist 18.3278
lhand -14.0346 -36.634
lfingers 7.12502
lthumb 12.0958 -7.0036
rfemur -16.9407 1.67569 10.6783
rtibia 5.96354e-014
rfoot -15.2891 -17.4737
rtoes -4.60257
lfemur -33.8761 3.74194 -16.8589
ltibia 26.2592
lfoot -13.3916 7.94326
ltoes -55.2444
676
root -0.552877 18.897 4.78255 20.5596 1.55696 1.10685
lowerback 26.1466 -0.408137 0.704718
upperback 3.01234 -0.168128 1.25154
thorax -11.2052 -0.0734198 1.06216
lowerneck -11.1358 -4.06526 -2.12223
upperneck -4.75868 -5.17492 5.96111
head 0.613258 -2.49948 2.04054
rclavicle 4.77083e-015 -3.18055e-015
rhumerus 0.408819 25.5029 -54.8829
rradius 147.921
rwrist -22.8302
rhand -6.83219 -40.526
rfingers 7.12502
rthumb 19.0322 -69.6149
lclavicle 4.77083e-015 -3.18055e-015
lhumerus 6.83065 -42.5115 67.5363
lradius 137.428
lwrist 18.1015
lhand -13.7093 -36.4884
lfingers 7.12502
lthumb 12.4094 -6.87677
rfemur -16.8293 1.73914 10.8133
rtibia 3.57812e-014
rfoot -15.4008 -17.4051
rtoes -4.37292
lfemur -33.8219 3.64578 -16.6799
ltibia 26.4221
lfoot -13.5956 8.07918
ltoes -55.3035
677
root -0.549547 18.8958 4.78907 20.6702 1.45228 0.714884
lowerback 25.944 -0.391967 0.840503
upperback 2.80214 -0.104416 1.29985
thorax -11.3397 -0.0491387 1.0166
lowerneck -10.5326 -5.5323 -3.27895
upperneck -5.9042 -6.9593 8.38092
head 0.37556 -3.3857 2.99327
rclavicle 7.95139e-016 -2.38542e-015
rhumerus -0.188804 25.7598 -55.5564
rradius 147.844
rwrist -21.5514
rhand -7.72607 -40.6443
rfingers 7.12502
rthumb 18.1724 -69.8154
lclavicle 7.95139e-016 -2.38542e-015
lhumerus 4.94603 -42.3802 68.549
lradius 137.413
lwrist 17.8515
lhand -13.4751 -36.3414
lfingers 7.12502
lthumb 12.6352 -6.74358
rfemur -17.0118 1.96699 11.1775
rtibia -9.54166e-015
rfoot -15.3821 -17.4299
rtoes -4.55837
lfemur -33.9891 3.50221 -16.1796
ltibia 26.5967
lfoot -13.7668 8.41595
ltoes -55.3063
678
root -0.537019 18.8922 4.79189 20.8531 1.27233 0.31903
lowerback 25.6561 -0.3682 1.0459
upperback 2.61312 -0.0120136 1.362
thorax -11.4043 -0.0150568 0.935648
lowerneck -9.84643 -7.13725 -4.55414
upperneck -7.20742 -8.90452 10.7133
head 0.151792 -4.37363 3.97216
rclavicle -1.33186e-014 3.18055e-015
rhumerus -0.653672 25.9918 -55.9458
rradius 147.785
rwrist -20.4732
rhand -9.2181 -40.3696
rfingers 7.12502
rthumb 16.7365 -69.6682
lclavicle -1.33186e-014 3.18055e-015
lhumerus 3.15186 -42.0272 69.5837
lradius 137.456
lwrist 17.7022
lhand -13.3568 -36.1426
lfingers 7.12502
lthumb 12.7492 -6.55182
rfemur -17.3216 2.24244 11.4744
rtibia 5.88403e-014
rfoot -15.2948 -17.4998
rtoes -4.91244
lfemur -34.244 3.28284 -15.6866
ltibia 26.7778
lfoot -14.0068 8.85328
ltoes -55.1508
679
root -0.527265 18.8908 4.81034 20.9 1.09917 0.492192
lowerback 25.2108 -0.366436 0.604531
upperback 2.4989 -0.12789 1.44515
thorax -11.2948 -0.0452302 1.31981
lowerneck -9.0759 -8.46285 -5.54785
upperneck -8.61374 -10.4713 12.8177
head -0.0672506 -5.20478 4.4003
rclavicle -5.36719e-015 -3.18055e-015
rhumerus -1.02775 26.4053 -55.9953
rradius 147.767
rwrist -20.0792
rhand -10.2084 -40.3022
rfingers 7.12502
rthumb 15.783 -69.6788
lclavicle -5.36719e-015 -3.18055e-015
lhumerus 1.16472 -41.3082 70.9183
lradius 137.529
lwrist 17.3621
lhand -13.3145 -35.8528
lfingers 7.12502
lthumb 12.79 -6.26463
rfemur -17.3552 2.31073 11.1812
rtibia 6.20208e-014
rfoot -15.3327 -17.5059
rtoes -5.10662
lfemur -34.2675 3.16428 -15.9139
ltibia 26.9127
lfoot -14.2386 8.99643
ltoes -55.0875
